# Blender 3.3.0
# www.blender.org
mtllib untitled.mtl
o head.001
v 0.250000 2.125000 0.250000
v 0.250000 2.125000 -0.250000
v 0.250000 1.500000 0.250000
v 0.250000 1.500000 -0.250000
v -0.250000 2.125000 -0.250000
v -0.250000 2.125000 0.250000
v -0.250000 1.500000 -0.250000
v -0.250000 1.500000 0.250000
v -0.250000 2.125000 -0.250000
v 0.250000 2.125000 -0.250000
v -0.250000 2.125000 0.250000
v 0.250000 2.125000 0.250000
v -0.250000 1.500000 0.250000
v 0.250000 1.500000 0.250000
v -0.250000 1.500000 -0.250000
v 0.250000 1.500000 -0.250000
v -0.250000 2.125000 0.250000
v 0.250000 2.125000 0.250000
v -0.250000 1.500000 0.250000
v 0.250000 1.500000 0.250000
v 0.250000 2.125000 -0.250000
v -0.250000 2.125000 -0.250000
v 0.250000 1.500000 -0.250000
v -0.250000 1.500000 -0.250000
vn 1.0000 -0.0000 -0.0000
vn -1.0000 -0.0000 -0.0000
vn -0.0000 1.0000 -0.0000
vn -0.0000 -1.0000 -0.0000
vn -0.0000 -0.0000 1.0000
vn -0.0000 -0.0000 -1.0000
vt 0.000244 0.125244
vt 0.124756 0.125244
vt 0.000244 0.281006
vt 0.124756 0.281006
vt 0.250244 0.125244
vt 0.374756 0.125244
vt 0.250244 0.281006
vt 0.374756 0.281006
vt 0.249756 0.124756
vt 0.125244 0.124756
vt 0.249756 0.000244
vt 0.125244 0.000244
vt 0.374756 0.000244
vt 0.250244 0.000244
vt 0.374756 0.124756
vt 0.250244 0.124756
vt 0.375244 0.125244
vt 0.499756 0.125244
vt 0.375244 0.281006
vt 0.499756 0.281006
vt 0.125244 0.125244
vt 0.249756 0.125244
vt 0.125244 0.281006
vt 0.249756 0.281006
s 0
usemtl Material_0
f 1/1/1 3/3/1 2/2/1
f 3/3/1 4/4/1 2/2/1
f 5/5/2 7/7/2 6/6/2
f 7/7/2 8/8/2 6/6/2
f 9/9/3 11/11/3 10/10/3
f 11/11/3 12/12/3 10/10/3
f 13/13/4 15/15/4 14/14/4
f 15/15/4 16/16/4 14/14/4
f 17/17/5 19/19/5 18/18/5
f 19/19/5 20/20/5 18/18/5
f 21/21/6 23/23/6 22/22/6
f 23/23/6 24/24/6 22/22/6
o nose.001
v 0.062500 1.687500 -0.250000
v 0.062500 1.687500 -0.375000
v 0.062500 1.437500 -0.250000
v 0.062500 1.437500 -0.375000
v -0.062500 1.687500 -0.375000
v -0.062500 1.687500 -0.250000
v -0.062500 1.437500 -0.375000
v -0.062500 1.437500 -0.250000
v -0.062500 1.687500 -0.375000
v 0.062500 1.687500 -0.375000
v -0.062500 1.687500 -0.250000
v 0.062500 1.687500 -0.250000
v -0.062500 1.437500 -0.250000
v 0.062500 1.437500 -0.250000
v -0.062500 1.437500 -0.375000
v 0.062500 1.437500 -0.375000
v -0.062500 1.687500 -0.250000
v 0.062500 1.687500 -0.250000
v -0.062500 1.437500 -0.250000
v 0.062500 1.437500 -0.250000
v 0.062500 1.687500 -0.375000
v -0.062500 1.687500 -0.375000
v 0.062500 1.437500 -0.375000
v -0.062500 1.437500 -0.375000
vn 1.0000 -0.0000 -0.0000
vn -1.0000 -0.0000 -0.0000
vn -0.0000 1.0000 -0.0000
vn -0.0000 -1.0000 -0.0000
vn -0.0000 -0.0000 1.0000
vn -0.0000 -0.0000 -1.0000
vt 0.375244 0.031494
vt 0.406006 0.031494
vt 0.375244 0.093506
vt 0.406006 0.093506
vt 0.437744 0.031494
vt 0.468506 0.031494
vt 0.437744 0.093506
vt 0.468506 0.093506
vt 0.437256 0.031006
vt 0.406494 0.031006
vt 0.437256 0.000244
vt 0.406494 0.000244
vt 0.468506 0.000244
vt 0.437744 0.000244
vt 0.468506 0.031006
vt 0.437744 0.031006
vt 0.468994 0.031494
vt 0.499756 0.031494
vt 0.468994 0.093506
vt 0.499756 0.093506
vt 0.406494 0.031494
vt 0.437256 0.031494
vt 0.406494 0.093506
vt 0.437256 0.093506
s 0
usemtl Material_0
f 25/25/7 27/27/7 26/26/7
f 27/27/7 28/28/7 26/26/7
f 29/29/8 31/31/8 30/30/8
f 31/31/8 32/32/8 30/30/8
f 33/33/9 35/35/9 34/34/9
f 35/35/9 36/36/9 34/34/9
f 37/37/10 39/39/10 38/38/10
f 39/39/10 40/40/10 38/38/10
f 41/41/11 43/43/11 42/42/11
f 43/43/11 44/44/11 42/42/11
f 45/45/12 47/47/12 46/46/12
f 47/47/12 48/48/12 46/46/12
o body.001
v 0.250000 1.500000 0.187500
v 0.250000 1.500000 -0.187500
v 0.250000 0.750000 0.187500
v 0.250000 0.750000 -0.187500
v -0.250000 1.500000 -0.187500
v -0.250000 1.500000 0.187500
v -0.250000 0.750000 -0.187500
v -0.250000 0.750000 0.187500
v -0.250000 1.500000 -0.187500
v 0.250000 1.500000 -0.187500
v -0.250000 1.500000 0.187500
v 0.250000 1.500000 0.187500
v -0.250000 0.750000 0.187500
v 0.250000 0.750000 0.187500
v -0.250000 0.750000 -0.187500
v 0.250000 0.750000 -0.187500
v -0.250000 1.500000 0.187500
v 0.250000 1.500000 0.187500
v -0.250000 0.750000 0.187500
v 0.250000 0.750000 0.187500
v 0.250000 1.500000 -0.187500
v -0.250000 1.500000 -0.187500
v 0.250000 0.750000 -0.187500
v -0.250000 0.750000 -0.187500
vn 1.0000 -0.0000 -0.0000
vn -1.0000 -0.0000 -0.0000
vn -0.0000 1.0000 -0.0000
vn -0.0000 -1.0000 -0.0000
vn -0.0000 -0.0000 1.0000
vn -0.0000 -0.0000 -1.0000
vt 0.250244 0.406494
vt 0.343506 0.406494
vt 0.250244 0.593506
vt 0.343506 0.593506
vt 0.468994 0.406494
vt 0.562256 0.406494
vt 0.468994 0.593506
vt 0.562256 0.593506
vt 0.468506 0.406006
vt 0.343994 0.406006
vt 0.468506 0.312744
vt 0.343994 0.312744
vt 0.593506 0.312744
vt 0.468994 0.312744
vt 0.593506 0.406006
vt 0.468994 0.406006
vt 0.562744 0.406494
vt 0.687256 0.406494
vt 0.562744 0.593506
vt 0.687256 0.593506
vt 0.343994 0.406494
vt 0.468506 0.406494
vt 0.343994 0.593506
vt 0.468506 0.593506
s 0
usemtl Material_0
f 49/49/13 51/51/13 50/50/13
f 51/51/13 52/52/13 50/50/13
f 53/53/14 55/55/14 54/54/14
f 55/55/14 56/56/14 54/54/14
f 57/57/15 59/59/15 58/58/15
f 59/59/15 60/60/15 58/58/15
f 61/61/16 63/63/16 62/62/16
f 63/63/16 64/64/16 62/62/16
f 65/65/17 67/67/17 66/66/17
f 67/67/17 68/68/17 66/66/17
f 69/69/18 71/71/18 70/70/18
f 71/71/18 72/72/18 70/70/18
o bodywear.001
v 0.281250 1.531250 0.218750
v 0.281250 1.531250 -0.218750
v 0.281250 0.218750 0.218750
v 0.281250 0.218750 -0.218750
v -0.281250 1.531250 -0.218750
v -0.281250 1.531250 0.218750
v -0.281250 0.218750 -0.218750
v -0.281250 0.218750 0.218750
v -0.281250 1.531250 -0.218750
v 0.281250 1.531250 -0.218750
v -0.281250 1.531250 0.218750
v 0.281250 1.531250 0.218750
v -0.281250 0.218750 0.218750
v 0.281250 0.218750 0.218750
v -0.281250 0.218750 -0.218750
v 0.281250 0.218750 -0.218750
v -0.281250 1.531250 0.218750
v 0.281250 1.531250 0.218750
v -0.281250 0.218750 0.218750
v 0.281250 0.218750 0.218750
v 0.281250 1.531250 -0.218750
v -0.281250 1.531250 -0.218750
v 0.281250 0.218750 -0.218750
v -0.281250 0.218750 -0.218750
vn 1.0000 -0.0000 -0.0000
vn -1.0000 -0.0000 -0.0000
vn -0.0000 1.0000 -0.0000
vn -0.0000 -1.0000 -0.0000
vn -0.0000 -0.0000 1.0000
vn -0.0000 -0.0000 -1.0000
vt 0.000244 0.687744
vt 0.093506 0.687744
vt 0.000244 0.999756
vt 0.093506 0.999756
vt 0.218994 0.687744
vt 0.312256 0.687744
vt 0.218994 0.999756
vt 0.312256 0.999756
vt 0.218506 0.687256
vt 0.093994 0.687256
vt 0.218506 0.593994
vt 0.093994 0.593994
vt 0.343506 0.593994
vt 0.218994 0.593994
vt 0.343506 0.687256
vt 0.218994 0.687256
vt 0.312744 0.687744
vt 0.437256 0.687744
vt 0.312744 0.999756
vt 0.437256 0.999756
vt 0.093994 0.687744
vt 0.218506 0.687744
vt 0.093994 0.999756
vt 0.218506 0.999756
s 0
usemtl Material_0
f 73/73/19 75/75/19 74/74/19
f 75/75/19 76/76/19 74/74/19
f 77/77/20 79/79/20 78/78/20
f 79/79/20 80/80/20 78/78/20
f 81/81/21 83/83/21 82/82/21
f 83/83/21 84/84/21 82/82/21
f 85/85/22 87/87/22 86/86/22
f 87/87/22 88/88/22 86/86/22
f 89/89/23 91/91/23 90/90/23
f 91/91/23 92/92/23 90/90/23
f 93/93/24 95/95/24 94/94/24
f 95/95/24 96/96/24 94/94/24
o arms_rotation.001
v 0.500000 1.321000 0.113294
v 0.500000 1.491500 -0.069544
v 0.500000 0.955323 -0.227705
v 0.500000 1.125823 -0.410543
v 0.250000 1.491500 -0.069544
v 0.250000 1.321000 0.113294
v 0.250000 1.125823 -0.410543
v 0.250000 0.955323 -0.227705
v 0.250000 1.491500 -0.069544
v 0.500000 1.491500 -0.069544
v 0.250000 1.321000 0.113294
v 0.500000 1.321000 0.113294
v 0.250000 0.955323 -0.227705
v 0.500000 0.955323 -0.227705
v 0.250000 1.125823 -0.410543
v 0.500000 1.125823 -0.410543
v 0.250000 1.321000 0.113294
v 0.500000 1.321000 0.113294
v 0.250000 0.955323 -0.227705
v 0.500000 0.955323 -0.227705
v 0.500000 1.491500 -0.069544
v 0.250000 1.491500 -0.069544
v 0.500000 1.125823 -0.410543
v 0.250000 1.125823 -0.410543
vn 1.0000 -0.0000 -0.0000
vn -1.0000 -0.0000 -0.0000
vn -0.0000 0.7314 0.6820
vn -0.0000 -0.7314 -0.6820
vn -0.0000 -0.6820 0.7314
vn -0.0000 0.6820 -0.7314
vt 0.687744 0.406494
vt 0.749756 0.406494
vt 0.687744 0.531006
vt 0.749756 0.531006
vt 0.812744 0.406494
vt 0.874756 0.406494
vt 0.812744 0.531006
vt 0.874756 0.531006
vt 0.812256 0.406006
vt 0.750244 0.406006
vt 0.812256 0.343994
vt 0.750244 0.343994
vt 0.874756 0.343994
vt 0.812744 0.343994
vt 0.874756 0.406006
vt 0.812744 0.406006
vt 0.875244 0.406494
vt 0.937256 0.406494
vt 0.875244 0.531006
vt 0.937256 0.531006
vt 0.750244 0.406494
vt 0.812256 0.406494
vt 0.750244 0.531006
vt 0.812256 0.531006
s 0
usemtl Material_0
f 97/97/25 99/99/25 98/98/25
f 99/99/25 100/100/25 98/98/25
f 101/101/26 103/103/26 102/102/26
f 103/103/26 104/104/26 102/102/26
f 105/105/27 107/107/27 106/106/27
f 107/107/27 108/108/27 106/106/27
f 109/109/28 111/111/28 110/110/28
f 111/111/28 112/112/28 110/110/28
f 113/113/29 115/115/29 114/114/29
f 115/115/29 116/116/29 114/114/29
f 117/117/30 119/119/30 118/118/30
f 119/119/30 120/120/30 118/118/30
o arms_rotation.002
v 0.250000 1.138162 -0.057205
v 0.250000 1.308661 -0.240044
v 0.250000 0.955323 -0.227705
v 0.250000 1.125823 -0.410543
v -0.250000 1.308661 -0.240044
v -0.250000 1.138162 -0.057205
v -0.250000 1.125823 -0.410543
v -0.250000 0.955323 -0.227705
v -0.250000 1.308661 -0.240044
v 0.250000 1.308661 -0.240044
v -0.250000 1.138162 -0.057205
v 0.250000 1.138162 -0.057205
v -0.250000 0.955323 -0.227705
v 0.250000 0.955323 -0.227705
v -0.250000 1.125823 -0.410543
v 0.250000 1.125823 -0.410543
v -0.250000 1.138162 -0.057205
v 0.250000 1.138162 -0.057205
v -0.250000 0.955323 -0.227705
v 0.250000 0.955323 -0.227705
v 0.250000 1.308661 -0.240044
v -0.250000 1.308661 -0.240044
v 0.250000 1.125823 -0.410543
v -0.250000 1.125823 -0.410543
vn 1.0000 -0.0000 -0.0000
vn -1.0000 -0.0000 -0.0000
vn -0.0000 0.7314 0.6820
vn -0.0000 -0.7314 -0.6820
vn -0.0000 -0.6820 0.7314
vn -0.0000 0.6820 -0.7314
vt 0.625244 0.656494
vt 0.687256 0.656494
vt 0.625244 0.718506
vt 0.687256 0.718506
vt 0.812744 0.656494
vt 0.874756 0.656494
vt 0.812744 0.718506
vt 0.874756 0.718506
vt 0.812256 0.656006
vt 0.687744 0.656006
vt 0.812256 0.593994
vt 0.687744 0.593994
vt 0.937256 0.593994
vt 0.812744 0.593994
vt 0.937256 0.656006
vt 0.812744 0.656006
vt 0.875244 0.656494
vt 0.999756 0.656494
vt 0.875244 0.718506
vt 0.999756 0.718506
vt 0.687744 0.656494
vt 0.812256 0.656494
vt 0.687744 0.718506
vt 0.812256 0.718506
s 0
usemtl Material_0
f 121/121/31 123/123/31 122/122/31
f 123/123/31 124/124/31 122/122/31
f 125/125/32 127/127/32 126/126/32
f 127/127/32 128/128/32 126/126/32
f 129/129/33 131/131/33 130/130/33
f 131/131/33 132/132/33 130/130/33
f 133/133/34 135/135/34 134/134/34
f 135/135/34 136/136/34 134/134/34
f 137/137/35 139/139/35 138/138/35
f 139/139/35 140/140/35 138/138/35
f 141/141/36 143/143/36 142/142/36
f 143/143/36 144/144/36 142/142/36
o arms_flipped.001
v -0.250000 1.321000 0.113294
v -0.250000 1.491500 -0.069544
v -0.250000 0.955323 -0.227705
v -0.250000 1.125823 -0.410543
v -0.500000 1.491500 -0.069544
v -0.500000 1.321000 0.113294
v -0.500000 1.125823 -0.410543
v -0.500000 0.955323 -0.227705
v -0.500000 1.491500 -0.069544
v -0.250000 1.491500 -0.069544
v -0.500000 1.321000 0.113294
v -0.250000 1.321000 0.113294
v -0.500000 0.955323 -0.227705
v -0.250000 0.955323 -0.227705
v -0.500000 1.125823 -0.410543
v -0.250000 1.125823 -0.410543
v -0.500000 1.321000 0.113294
v -0.250000 1.321000 0.113294
v -0.500000 0.955323 -0.227705
v -0.250000 0.955323 -0.227705
v -0.250000 1.491500 -0.069544
v -0.500000 1.491500 -0.069544
v -0.250000 1.125823 -0.410543
v -0.500000 1.125823 -0.410543
vn 1.0000 -0.0000 -0.0000
vn -1.0000 -0.0000 -0.0000
vn -0.0000 0.7314 0.6820
vn -0.0000 -0.7314 -0.6820
vn -0.0000 -0.6820 0.7314
vn -0.0000 0.6820 -0.7314
vt 0.874756 0.406494
vt 0.812744 0.406494
vt 0.874756 0.531006
vt 0.812744 0.531006
vt 0.749756 0.406494
vt 0.687744 0.406494
vt 0.749756 0.531006
vt 0.687744 0.531006
vt 0.750244 0.406006
vt 0.812256 0.406006
vt 0.750244 0.343994
vt 0.812256 0.343994
vt 0.812744 0.343994
vt 0.874756 0.343994
vt 0.812744 0.406006
vt 0.874756 0.406006
vt 0.937256 0.406494
vt 0.875244 0.406494
vt 0.937256 0.531006
vt 0.875244 0.531006
vt 0.812256 0.406494
vt 0.750244 0.406494
vt 0.812256 0.531006
vt 0.750244 0.531006
s 0
usemtl Material_0
f 145/145/37 147/147/37 146/146/37
f 147/147/37 148/148/37 146/146/37
f 149/149/38 151/151/38 150/150/38
f 151/151/38 152/152/38 150/150/38
f 153/153/39 155/155/39 154/154/39
f 155/155/39 156/156/39 154/154/39
f 157/157/40 159/159/40 158/158/40
f 159/159/40 160/160/40 158/158/40
f 161/161/41 163/163/41 162/162/41
f 163/163/41 164/164/41 162/162/41
f 165/165/42 167/167/42 166/166/42
f 167/167/42 168/168/42 166/166/42
o right_leg.001
v 0.250000 0.750000 0.125000
v 0.250000 0.750000 -0.125000
v 0.250000 0.000000 0.125000
v 0.250000 0.000000 -0.125000
v 0.000000 0.750000 -0.125000
v 0.000000 0.750000 0.125000
v 0.000000 0.000000 -0.125000
v 0.000000 0.000000 0.125000
v 0.000000 0.750000 -0.125000
v 0.250000 0.750000 -0.125000
v 0.000000 0.750000 0.125000
v 0.250000 0.750000 0.125000
v 0.000000 0.000000 0.125000
v 0.250000 0.000000 0.125000
v 0.000000 0.000000 -0.125000
v 0.250000 0.000000 -0.125000
v 0.000000 0.750000 0.125000
v 0.250000 0.750000 0.125000
v 0.000000 0.000000 0.125000
v 0.250000 0.000000 0.125000
v 0.250000 0.750000 -0.125000
v 0.000000 0.750000 -0.125000
v 0.250000 0.000000 -0.125000
v 0.000000 0.000000 -0.125000
vn 1.0000 -0.0000 -0.0000
vn -1.0000 -0.0000 -0.0000
vn -0.0000 1.0000 -0.0000
vn -0.0000 -1.0000 -0.0000
vn -0.0000 -0.0000 1.0000
vn -0.0000 -0.0000 -1.0000
vt 0.000244 0.406494
vt 0.062256 0.406494
vt 0.000244 0.593506
vt 0.062256 0.593506
vt 0.125244 0.406494
vt 0.187256 0.406494
vt 0.125244 0.593506
vt 0.187256 0.593506
vt 0.124756 0.406006
vt 0.062744 0.406006
vt 0.124756 0.343994
vt 0.062744 0.343994
vt 0.187256 0.343994
vt 0.125244 0.343994
vt 0.187256 0.406006
vt 0.125244 0.406006
vt 0.187744 0.406494
vt 0.249756 0.406494
vt 0.187744 0.593506
vt 0.249756 0.593506
vt 0.062744 0.406494
vt 0.124756 0.406494
vt 0.062744 0.593506
vt 0.124756 0.593506
s 0
usemtl Material_0
f 169/169/43 171/171/43 170/170/43
f 171/171/43 172/172/43 170/170/43
f 173/173/44 175/175/44 174/174/44
f 175/175/44 176/176/44 174/174/44
f 177/177/45 179/179/45 178/178/45
f 179/179/45 180/180/45 178/178/45
f 181/181/46 183/183/46 182/182/46
f 183/183/46 184/184/46 182/182/46
f 185/185/47 187/187/47 186/186/47
f 187/187/47 188/188/47 186/186/47
f 189/189/48 191/191/48 190/190/48
f 191/191/48 192/192/48 190/190/48
o left_leg.001
v 0.000000 0.750000 0.125000
v 0.000000 0.750000 -0.125000
v 0.000000 0.000000 0.125000
v 0.000000 0.000000 -0.125000
v -0.250000 0.750000 -0.125000
v -0.250000 0.750000 0.125000
v -0.250000 0.000000 -0.125000
v -0.250000 0.000000 0.125000
v -0.250000 0.750000 -0.125000
v 0.000000 0.750000 -0.125000
v -0.250000 0.750000 0.125000
v 0.000000 0.750000 0.125000
v -0.250000 0.000000 0.125000
v 0.000000 0.000000 0.125000
v -0.250000 0.000000 -0.125000
v 0.000000 0.000000 -0.125000
v -0.250000 0.750000 0.125000
v 0.000000 0.750000 0.125000
v -0.250000 0.000000 0.125000
v 0.000000 0.000000 0.125000
v 0.000000 0.750000 -0.125000
v -0.250000 0.750000 -0.125000
v 0.000000 0.000000 -0.125000
v -0.250000 0.000000 -0.125000
vn 1.0000 -0.0000 -0.0000
vn -1.0000 -0.0000 -0.0000
vn -0.0000 1.0000 -0.0000
vn -0.0000 -1.0000 -0.0000
vn -0.0000 -0.0000 1.0000
vn -0.0000 -0.0000 -1.0000
vt 0.187256 0.406494
vt 0.125244 0.406494
vt 0.187256 0.593506
vt 0.125244 0.593506
vt 0.062256 0.406494
vt 0.000244 0.406494
vt 0.062256 0.593506
vt 0.000244 0.593506
vt 0.062744 0.406006
vt 0.124756 0.406006
vt 0.062744 0.343994
vt 0.124756 0.343994
vt 0.125244 0.343994
vt 0.187256 0.343994
vt 0.125244 0.406006
vt 0.187256 0.406006
vt 0.249756 0.406494
vt 0.187744 0.406494
vt 0.249756 0.593506
vt 0.187744 0.593506
vt 0.124756 0.406494
vt 0.062744 0.406494
vt 0.124756 0.593506
vt 0.062744 0.593506
s 0
usemtl Material_0
f 193/193/49 195/195/49 194/194/49
f 195/195/49 196/196/49 194/194/49
f 197/197/50 199/199/50 198/198/50
f 199/199/50 200/200/50 198/198/50
f 201/201/51 203/203/51 202/202/51
f 203/203/51 204/204/51 202/202/51
f 205/205/52 207/207/52 206/206/52
f 207/207/52 208/208/52 206/206/52
f 209/209/53 211/211/53 210/210/53
f 211/211/53 212/212/53 210/210/53
f 213/213/54 215/215/54 214/214/54
f 215/215/54 216/216/54 214/214/54
